<svg width="167.412" height="24.268" viewBox="0 0 167.412 24.268" xmlns="http://www.w3.org/2000/svg"><g id="svgGroup" stroke-linecap="round" fill-rule="evenodd" font-size="9pt" stroke="#dee2e6" stroke-width="0.25mm" fill="#ffffff" style="stroke:#dee2e6;stroke-width:0.25mm;fill:#ffffff"><path d="M 113.955 1.572 L 112.998 3.623 A 1.008 1.008 0 0 0 112.878 3.504 Q 112.74 3.386 112.513 3.254 A 5.055 5.055 0 0 0 112.349 3.162 A 5.278 5.278 0 0 0 111.859 2.933 Q 111.558 2.809 111.204 2.7 A 13.187 13.187 0 0 0 110.324 2.464 A 16.228 16.228 0 0 0 109.751 2.341 Q 108.965 2.188 108.213 2.188 Q 107.461 2.188 106.794 2.341 Q 106.128 2.495 105.615 2.837 Q 105.103 3.179 104.812 3.76 Q 104.521 4.341 104.521 5.161 A 3.082 3.082 0 0 0 104.825 6.471 Q 105.013 6.876 105.318 7.278 A 5.465 5.465 0 0 0 105.359 7.332 A 4.325 4.325 0 0 0 106.378 8.263 Q 106.852 8.581 107.451 8.835 A 8.544 8.544 0 0 0 107.939 9.023 A 21.497 21.497 0 0 1 109.375 9.647 Q 110.636 10.253 111.477 10.903 A 11.034 11.034 0 0 1 112.347 11.647 Q 112.773 12.053 113.089 12.46 A 5.57 5.57 0 0 1 113.391 12.886 A 6.355 6.355 0 0 1 113.883 13.808 A 4.737 4.737 0 0 1 114.194 14.834 A 11.4 11.4 0 0 1 114.33 15.84 A 8.83 8.83 0 0 1 114.365 16.611 Q 114.263 19.448 112.554 21.021 A 5.403 5.403 0 0 1 110.591 22.149 Q 109.275 22.593 107.495 22.593 A 14.952 14.952 0 0 1 105.97 22.511 A 19.827 19.827 0 0 1 104.504 22.302 A 23.642 23.642 0 0 1 102.808 21.931 A 31.826 31.826 0 0 1 100.967 21.397 L 101.719 19.004 Q 102.778 19.414 104.368 19.773 A 14.317 14.317 0 0 0 107.529 20.132 A 8.892 8.892 0 0 0 108.803 20.044 A 7.722 7.722 0 0 0 109.272 19.961 Q 110.093 19.79 110.708 19.397 A 2.854 2.854 0 0 0 111.682 18.355 Q 112.014 17.754 112.039 16.891 A 4.922 4.922 0 0 0 112.041 16.748 Q 112.007 15.107 111.272 14.116 A 6.169 6.169 0 0 0 109.443 12.476 A 17.228 17.228 0 0 0 107.398 11.444 A 19.228 19.228 0 0 0 107.085 11.314 A 13.039 13.039 0 0 1 104.752 10.089 A 12.123 12.123 0 0 1 104.744 10.083 Q 103.667 9.365 102.949 8.272 Q 102.351 7.36 102.251 5.95 A 8.283 8.283 0 0 1 102.231 5.366 Q 102.231 4.115 102.553 3.186 A 4.486 4.486 0 0 1 102.676 2.871 A 4.43 4.43 0 0 1 103.351 1.767 A 3.921 3.921 0 0 1 103.923 1.213 A 5.063 5.063 0 0 1 105.457 0.395 A 5.972 5.972 0 0 1 105.803 0.291 A 8.424 8.424 0 0 1 107.335 0.031 A 10.249 10.249 0 0 1 108.145 0 A 11.821 11.821 0 0 1 111.323 0.427 A 10.918 10.918 0 0 1 112.709 0.909 A 8.065 8.065 0 0 1 113.955 1.572 Z M 50.176 12.783 L 50.176 24.268 L 47.646 24.268 L 47.646 2.461 L 49.287 0.957 Q 50.073 0.855 50.876 0.786 Q 51.68 0.718 52.466 0.718 A 17.753 17.753 0 0 1 56.055 1.077 Q 57.798 1.436 59.165 2.205 A 6.785 6.785 0 0 1 60.857 3.531 A 6.244 6.244 0 0 1 61.37 4.17 A 4.579 4.579 0 0 1 62.129 6.081 A 6.125 6.125 0 0 1 62.207 7.075 A 7.188 7.188 0 0 1 62.118 8.241 Q 62.012 8.885 61.78 9.42 A 4.143 4.143 0 0 1 61.66 9.673 A 5.134 5.134 0 0 1 60.19 11.433 A 6.671 6.671 0 0 1 58.105 12.493 A 12.928 12.928 0 0 1 55.713 12.988 L 61.113 21.602 L 59.336 22.832 L 53.32 13.125 A 36.991 36.991 0 0 1 51.714 13.091 A 5.128 5.128 0 0 1 50.176 12.783 Z M 9.229 22.49 L 7.451 2.871 L 0 2.871 L 0 0.889 L 17.295 0.889 L 17.295 2.598 L 9.57 2.598 L 11.416 22.285 L 9.229 22.49 Z M 120.449 22.9 L 119.219 21.465 L 119.219 11.108 L 115.732 11.108 L 115.938 8.613 L 119.697 8.613 L 119.697 1.641 L 122.021 1.641 L 122.021 8.75 L 127.627 8.75 L 127.627 11.211 L 121.782 11.211 L 121.782 20.098 L 126.943 19.141 L 127.285 21.465 L 120.449 22.9 Z M 79.434 22.559 L 77.93 20.918 L 82.749 15.107 L 78.203 9.092 L 79.775 7.725 L 84.116 13.467 L 88.525 8.135 L 90.098 9.775 L 85.483 15.313 L 89.824 21.055 L 88.252 22.422 L 84.116 16.953 L 79.434 22.559 Z M 31.445 16.338 L 21.943 17.261 A 4.409 4.409 0 0 0 22.103 18.068 A 3.242 3.242 0 0 0 22.473 18.884 A 3.468 3.468 0 0 0 23.55 19.961 Q 24.199 20.371 24.951 20.542 A 6.918 6.918 0 0 0 26.489 20.713 A 8.273 8.273 0 0 0 28.984 20.337 A 7.376 7.376 0 0 0 29.672 20.085 Q 30.006 19.942 30.272 19.78 A 2.943 2.943 0 0 0 30.762 19.414 L 31.377 21.055 A 2.183 2.183 0 0 1 31.143 21.332 Q 31.018 21.459 30.86 21.586 A 4.448 4.448 0 0 1 30.659 21.738 A 4.689 4.689 0 0 1 30.067 22.096 A 6.086 6.086 0 0 1 29.531 22.336 A 7.313 7.313 0 0 1 28.752 22.592 A 9.284 9.284 0 0 1 28.079 22.747 Q 27.275 22.9 26.421 22.9 A 7.942 7.942 0 0 1 24.028 22.524 A 5.606 5.606 0 0 1 21.875 21.26 A 5.537 5.537 0 0 1 20.917 20.071 A 7.597 7.597 0 0 1 20.337 18.884 A 7.682 7.682 0 0 1 19.95 17.499 Q 19.82 16.801 19.777 15.992 A 15.454 15.454 0 0 1 19.756 15.176 A 10.721 10.721 0 0 1 19.839 13.798 Q 19.931 13.093 20.123 12.498 A 5.637 5.637 0 0 1 20.303 12.014 A 7.003 7.003 0 0 1 20.858 10.958 A 5.1 5.1 0 0 1 21.687 9.963 A 4.983 4.983 0 0 1 23.289 8.961 A 4.785 4.785 0 0 1 23.55 8.87 A 7.015 7.015 0 0 1 24.805 8.591 A 5.911 5.911 0 0 1 25.532 8.545 A 8.18 8.18 0 0 1 26.889 8.653 A 6.393 6.393 0 0 1 27.993 8.938 A 4.329 4.329 0 0 1 29.856 10.237 A 5.021 5.021 0 0 1 30.517 11.255 Q 30.824 11.871 31.035 12.647 A 10.472 10.472 0 0 1 31.301 13.981 Q 31.391 14.642 31.425 15.398 A 20.992 20.992 0 0 1 31.445 16.338 Z M 45.254 16.338 L 35.752 17.261 A 4.409 4.409 0 0 0 35.912 18.068 A 3.242 3.242 0 0 0 36.282 18.884 A 3.468 3.468 0 0 0 37.358 19.961 Q 38.008 20.371 38.76 20.542 A 6.918 6.918 0 0 0 40.298 20.713 A 8.273 8.273 0 0 0 42.793 20.337 A 7.376 7.376 0 0 0 43.481 20.085 Q 43.815 19.942 44.081 19.78 A 2.943 2.943 0 0 0 44.57 19.414 L 45.186 21.055 A 2.183 2.183 0 0 1 44.952 21.332 Q 44.827 21.459 44.669 21.586 A 4.448 4.448 0 0 1 44.468 21.738 A 4.689 4.689 0 0 1 43.875 22.096 A 6.086 6.086 0 0 1 43.34 22.336 A 7.313 7.313 0 0 1 42.561 22.592 A 9.284 9.284 0 0 1 41.887 22.747 Q 41.084 22.9 40.229 22.9 A 7.942 7.942 0 0 1 37.837 22.524 A 5.606 5.606 0 0 1 35.684 21.26 A 5.537 5.537 0 0 1 34.726 20.071 A 7.597 7.597 0 0 1 34.146 18.884 A 7.682 7.682 0 0 1 33.759 17.499 Q 33.628 16.801 33.585 15.992 A 15.454 15.454 0 0 1 33.564 15.176 A 10.721 10.721 0 0 1 33.648 13.798 Q 33.739 13.093 33.931 12.498 A 5.637 5.637 0 0 1 34.111 12.014 A 7.003 7.003 0 0 1 34.667 10.958 A 5.1 5.1 0 0 1 35.496 9.963 A 4.983 4.983 0 0 1 37.097 8.961 A 4.785 4.785 0 0 1 37.358 8.87 A 7.015 7.015 0 0 1 38.613 8.591 A 5.911 5.911 0 0 1 39.341 8.545 A 8.18 8.18 0 0 1 40.697 8.653 A 6.393 6.393 0 0 1 41.802 8.938 A 4.329 4.329 0 0 1 43.665 10.237 A 5.021 5.021 0 0 1 44.325 11.255 Q 44.632 11.871 44.844 12.647 A 10.472 10.472 0 0 1 45.109 13.981 Q 45.2 14.642 45.234 15.398 A 20.992 20.992 0 0 1 45.254 16.338 Z M 76.289 16.338 L 66.787 17.261 A 4.409 4.409 0 0 0 66.947 18.068 A 3.242 3.242 0 0 0 67.317 18.884 A 3.468 3.468 0 0 0 68.394 19.961 Q 69.043 20.371 69.795 20.542 A 6.918 6.918 0 0 0 71.333 20.713 A 8.273 8.273 0 0 0 73.828 20.337 A 7.376 7.376 0 0 0 74.516 20.085 Q 74.85 19.942 75.116 19.78 A 2.943 2.943 0 0 0 75.605 19.414 L 76.221 21.055 A 2.183 2.183 0 0 1 75.987 21.332 Q 75.862 21.459 75.704 21.586 A 4.448 4.448 0 0 1 75.503 21.738 A 4.689 4.689 0 0 1 74.911 22.096 A 6.086 6.086 0 0 1 74.375 22.336 A 7.313 7.313 0 0 1 73.596 22.592 A 9.284 9.284 0 0 1 72.922 22.747 Q 72.119 22.9 71.265 22.9 A 7.942 7.942 0 0 1 68.872 22.524 A 5.606 5.606 0 0 1 66.719 21.26 A 5.537 5.537 0 0 1 65.761 20.071 A 7.597 7.597 0 0 1 65.181 18.884 A 7.682 7.682 0 0 1 64.794 17.499 Q 64.663 16.801 64.621 15.992 A 15.454 15.454 0 0 1 64.6 15.176 A 10.721 10.721 0 0 1 64.683 13.798 Q 64.775 13.093 64.967 12.498 A 5.637 5.637 0 0 1 65.146 12.014 A 7.003 7.003 0 0 1 65.702 10.958 A 5.1 5.1 0 0 1 66.531 9.963 A 4.983 4.983 0 0 1 68.132 8.961 A 4.785 4.785 0 0 1 68.394 8.87 A 7.015 7.015 0 0 1 69.649 8.591 A 5.911 5.911 0 0 1 70.376 8.545 A 8.18 8.18 0 0 1 71.732 8.653 A 6.393 6.393 0 0 1 72.837 8.938 A 4.329 4.329 0 0 1 74.7 10.237 A 5.021 5.021 0 0 1 75.361 11.255 Q 75.667 11.871 75.879 12.647 A 10.472 10.472 0 0 1 76.144 13.981 Q 76.235 14.642 76.269 15.398 A 20.992 20.992 0 0 1 76.289 16.338 Z M 167.412 16.338 L 157.91 17.261 A 4.409 4.409 0 0 0 158.07 18.068 A 3.242 3.242 0 0 0 158.44 18.884 A 3.468 3.468 0 0 0 159.517 19.961 Q 160.166 20.371 160.918 20.542 A 6.918 6.918 0 0 0 162.456 20.713 A 8.273 8.273 0 0 0 164.951 20.337 A 7.376 7.376 0 0 0 165.639 20.085 Q 165.973 19.942 166.239 19.78 A 2.943 2.943 0 0 0 166.729 19.414 L 167.344 21.055 A 2.183 2.183 0 0 1 167.11 21.332 Q 166.985 21.459 166.827 21.586 A 4.448 4.448 0 0 1 166.626 21.738 A 4.689 4.689 0 0 1 166.034 22.096 A 6.086 6.086 0 0 1 165.498 22.336 A 7.313 7.313 0 0 1 164.719 22.592 A 9.284 9.284 0 0 1 164.045 22.747 Q 163.242 22.9 162.388 22.9 A 7.942 7.942 0 0 1 159.995 22.524 A 5.606 5.606 0 0 1 157.842 21.26 A 5.537 5.537 0 0 1 156.884 20.071 A 7.597 7.597 0 0 1 156.304 18.884 A 7.682 7.682 0 0 1 155.917 17.499 Q 155.786 16.801 155.744 15.992 A 15.454 15.454 0 0 1 155.723 15.176 A 10.721 10.721 0 0 1 155.806 13.798 Q 155.898 13.093 156.09 12.498 A 5.637 5.637 0 0 1 156.27 12.014 A 7.003 7.003 0 0 1 156.825 10.958 A 5.1 5.1 0 0 1 157.654 9.963 A 4.983 4.983 0 0 1 159.255 8.961 A 4.785 4.785 0 0 1 159.517 8.87 A 7.015 7.015 0 0 1 160.772 8.591 A 5.911 5.911 0 0 1 161.499 8.545 A 8.18 8.18 0 0 1 162.855 8.653 A 6.393 6.393 0 0 1 163.96 8.938 A 4.329 4.329 0 0 1 165.823 10.237 A 5.021 5.021 0 0 1 166.484 11.255 Q 166.79 11.871 167.002 12.647 A 10.472 10.472 0 0 1 167.268 13.981 Q 167.358 14.642 167.392 15.398 A 20.992 20.992 0 0 1 167.412 16.338 Z M 146.289 22.764 L 144.512 22.969 L 143.35 7.93 L 145.469 7.656 L 145.947 14.287 L 153.262 9.365 L 154.219 11.279 L 146.289 17.022 L 146.289 22.764 Z M 136.109 7.963 A 7.941 7.941 0 0 0 134.805 7.861 Q 133.403 7.861 132.292 8.425 Q 131.182 8.989 130.413 9.998 A 6.829 6.829 0 0 0 129.805 10.952 A 8.335 8.335 0 0 0 129.216 12.39 A 9.184 9.184 0 0 0 128.973 13.368 A 10.661 10.661 0 0 0 128.789 15.381 A 11.346 11.346 0 0 0 128.793 15.662 A 10.058 10.058 0 0 0 129.182 18.235 Q 129.575 19.585 130.344 20.627 A 5.704 5.704 0 0 0 132.258 22.285 Q 133.403 22.9 134.941 22.9 A 6.016 6.016 0 0 0 137.18 22.473 A 5.221 5.221 0 0 0 137.608 22.281 A 5.554 5.554 0 0 0 139.111 21.157 A 5.977 5.977 0 0 0 139.885 20.153 A 7.669 7.669 0 0 0 140.496 18.918 Q 140.794 18.159 140.946 17.243 A 12.014 12.014 0 0 0 141.094 15.723 A 14.798 14.798 0 0 0 141.06 14.719 A 12.335 12.335 0 0 0 140.752 12.664 Q 140.41 11.245 139.658 10.168 A 5.284 5.284 0 0 0 137.71 8.477 Q 137 8.111 136.109 7.963 Z M 53.172 11.107 A 15.814 15.814 0 0 0 53.389 11.108 A 14.325 14.325 0 0 0 55.679 10.92 A 7.962 7.962 0 0 0 57.045 10.579 A 6.703 6.703 0 0 0 57.781 10.271 Q 58.721 9.81 59.302 9.023 A 2.917 2.917 0 0 0 59.82 7.797 A 3.997 3.997 0 0 0 59.883 7.075 A 3.273 3.273 0 0 0 59.64 5.809 A 3.126 3.126 0 0 0 59.37 5.298 Q 58.857 4.512 57.952 3.982 A 6.949 6.949 0 0 0 56.802 3.449 A 9.061 9.061 0 0 0 55.833 3.162 A 10.613 10.613 0 0 0 54.075 2.9 A 12.71 12.71 0 0 0 53.218 2.871 A 12.399 12.399 0 0 0 51.919 2.939 A 14.408 14.408 0 0 0 50.756 3.111 A 15.913 15.913 0 0 0 50.586 3.145 A 53.585 53.585 0 0 0 50.402 5.855 A 62.502 62.502 0 0 0 50.364 6.973 Q 50.313 8.989 50.313 10.732 Q 51.562 11.085 53.172 11.107 Z M 135.01 10.186 A 4.905 4.905 0 0 0 133.762 10.336 A 3.483 3.483 0 0 0 132.053 11.348 A 3.469 3.469 0 0 0 131.361 12.51 Q 130.982 13.526 130.977 15.027 A 12.132 12.132 0 0 0 130.977 15.073 A 7.24 7.24 0 0 0 131.25 17.039 A 6.488 6.488 0 0 0 131.823 18.446 A 5.88 5.88 0 0 0 132.036 18.799 A 4.691 4.691 0 0 0 132.921 19.815 A 4.292 4.292 0 0 0 133.267 20.081 A 2.762 2.762 0 0 0 134.873 20.576 Q 135.796 20.576 136.548 20.132 A 4.194 4.194 0 0 0 137.813 18.987 A 5.672 5.672 0 0 0 138.597 17.469 A 6.34 6.34 0 0 0 138.616 17.415 A 5.702 5.702 0 0 0 138.865 16.345 A 4.833 4.833 0 0 0 138.906 15.723 A 13.257 13.257 0 0 0 138.83 14.248 Q 138.661 12.744 138.116 11.849 A 3.102 3.102 0 0 0 137.83 11.45 A 3.482 3.482 0 0 0 135.285 10.194 A 4.595 4.595 0 0 0 135.01 10.186 Z M 21.738 15.244 L 29.258 14.424 A 5.122 5.122 0 0 0 29.138 13.284 Q 28.932 12.379 28.369 11.741 A 2.691 2.691 0 0 0 27.252 11.001 Q 26.806 10.837 26.252 10.773 A 6.596 6.596 0 0 0 25.498 10.732 A 4.415 4.415 0 0 0 24.664 10.838 A 3.299 3.299 0 0 0 23.84 11.143 A 4.128 4.128 0 0 0 22.914 11.812 A 3.776 3.776 0 0 0 22.661 12.083 A 3.836 3.836 0 0 0 21.943 13.364 Q 21.704 14.082 21.704 14.834 A 3.513 3.513 0 0 0 21.707 14.977 Q 21.712 15.106 21.728 15.194 A 0.743 0.743 0 0 0 21.738 15.244 Z M 35.547 15.244 L 43.066 14.424 A 5.122 5.122 0 0 0 42.947 13.284 Q 42.74 12.379 42.178 11.741 A 2.691 2.691 0 0 0 41.06 11.001 Q 40.615 10.837 40.061 10.773 A 6.596 6.596 0 0 0 39.307 10.732 A 4.415 4.415 0 0 0 38.472 10.838 A 3.299 3.299 0 0 0 37.649 11.143 A 4.128 4.128 0 0 0 36.723 11.812 A 3.776 3.776 0 0 0 36.47 12.083 A 3.836 3.836 0 0 0 35.752 13.364 Q 35.513 14.082 35.513 14.834 A 3.513 3.513 0 0 0 35.515 14.977 Q 35.521 15.106 35.536 15.194 A 0.743 0.743 0 0 0 35.547 15.244 Z M 66.582 15.244 L 74.102 14.424 A 5.122 5.122 0 0 0 73.982 13.284 Q 73.775 12.379 73.213 11.741 A 2.691 2.691 0 0 0 72.095 11.001 Q 71.65 10.837 71.096 10.773 A 6.596 6.596 0 0 0 70.342 10.732 A 4.415 4.415 0 0 0 69.507 10.838 A 3.299 3.299 0 0 0 68.684 11.143 A 4.128 4.128 0 0 0 67.758 11.812 A 3.776 3.776 0 0 0 67.505 12.083 A 3.836 3.836 0 0 0 66.787 13.364 Q 66.548 14.082 66.548 14.834 A 3.513 3.513 0 0 0 66.551 14.977 Q 66.556 15.106 66.571 15.194 A 0.743 0.743 0 0 0 66.582 15.244 Z M 157.705 15.244 L 165.225 14.424 A 5.122 5.122 0 0 0 165.105 13.284 Q 164.898 12.379 164.336 11.741 A 2.691 2.691 0 0 0 163.218 11.001 Q 162.773 10.837 162.219 10.773 A 6.596 6.596 0 0 0 161.465 10.732 A 4.415 4.415 0 0 0 160.63 10.838 A 3.299 3.299 0 0 0 159.807 11.143 A 4.128 4.128 0 0 0 158.881 11.812 A 3.776 3.776 0 0 0 158.628 12.083 A 3.836 3.836 0 0 0 157.91 13.364 Q 157.671 14.082 157.671 14.834 A 3.513 3.513 0 0 0 157.674 14.977 Q 157.679 15.106 157.695 15.194 A 0.743 0.743 0 0 0 157.705 15.244 Z" vector-effect="non-scaling-stroke"/></g></svg>